<?xml version="1.0" encoding="UTF-8"?>
<!DOCTYPE svg PUBLIC "-//W3C//DTD SVG 1.1//EN" "http://www.w3.org/Graphics/SVG/1.1/DTD/svg11.dtd">
<!-- Creator: CorelDRAW X8 -->
<svg xmlns="http://www.w3.org/2000/svg" xml:space="preserve" width="103.489mm" height="67.8712mm" version="1.1" style="shape-rendering:geometricPrecision; text-rendering:geometricPrecision; image-rendering:optimizeQuality; fill-rule:evenodd; clip-rule:evenodd"
viewBox="0 0 2176 1427"
 xmlns:xlink="http://www.w3.org/1999/xlink">
 <defs>
  <style type="text/css">
   <![CDATA[
    .fil0 {fill:#FEFEFE}
   ]]>
  </style>
 </defs>
 <g id="Capa_x0020_1">
  <metadata id="CorelCorpID_0Corel-Layer"/>
  <path class="fil0" d="M1580 567l298 517 298 -517 -193 0 0 -462c0,-58 -47,-105 -105,-105l-1478 0c-56,0 -102,46 -102,102l0 6c0,56 46,102 102,102l1373 0 0 357 -193 0z"/>
  <path class="fil0" d="M596 860l-298 -517 -298 517 193 0 0 462c0,58 47,105 105,105l1478 0c56,0 102,-46 102,-102l0 -6c0,-56 -46,-102 -102,-102l-1373 0 0 -357 193 0z"/>
 </g>
</svg>
